# xmcd
#
# Track frame offsets:
#	150
#	19176
#	34869
#	50258
#	65404
#	80570
#	97404
#	115620
#	130719
#	146701
#	160786
#	180182
#	197855
#	216525
#
# Disc length: 3180 seconds
#
# Revision: 1
# Processed by: cddbd v1.5.2PL0 Copyright (c) Steve Scherf et al.
# Submitted via: audiograbber 1.83.01
#
DISCID=c60c6a0e
DTITLE=Steve Hofmeyr - The Country Collection
DYEAR=2018
DGENRE=Afrikaans
TTITLE0=Lucille
TTITLE1=Somebody Done Somebody Wrong Song
TTITLE2=Dancing In The Dark
TTITLE3=The Ballad Of The Green Berets
TTITLE4=Woman Beautiful Woman
TTITLE5=Baby Makes Her Blue Jeans Talk
TTITLE6=You'll Accompany Me
TTITLE7=Kiss You All Over
TTITLE8=Crossfire
TTITLE9=Amanda
TTITLE10=Sometimes When We Touch
TTITLE11=Dancing The Night Away
TTITLE12=Hungry Eyes
TTITLE13=My Way
EXTD=
EXTT0=
EXTT1=
EXTT2=
EXTT3=
EXTT4=
EXTT5=
EXTT6=
EXTT7=
EXTT8=
EXTT9=
EXTT10=
EXTT11=
EXTT12=
EXTT13=
PLAYORDER=
